<mxfile host="Electron" agent="Mozilla/5.0 (Windows NT 10.0; Win64; x64) AppleWebKit/537.36 (KHTML, like Gecko) draw.io/24.7.17 Chrome/128.0.6613.36 Electron/32.0.1 Safari/537.36" version="24.7.17">
  <diagram name="第 1 页" id="95puSpdXFsxn4Wvh_eAT">
    <mxGraphModel dx="1800" dy="900" grid="1" gridSize="10" guides="1" tooltips="1" connect="1" arrows="1" fold="1" page="1" pageScale="1" pageWidth="827" pageHeight="1169" math="0" shadow="0">
      <root>
        <mxCell id="0" />
        <mxCell id="1" parent="0" />
        <mxCell id="5alTJenOlYLxHf5rfWvM-3" value="" style="edgeStyle=orthogonalEdgeStyle;rounded=0;orthogonalLoop=1;jettySize=auto;html=1;" edge="1" parent="1" source="5alTJenOlYLxHf5rfWvM-1" target="5alTJenOlYLxHf5rfWvM-2">
          <mxGeometry relative="1" as="geometry" />
        </mxCell>
        <mxCell id="5alTJenOlYLxHf5rfWvM-1" value="Minor GC之前" style="rounded=0;whiteSpace=wrap;html=1;" vertex="1" parent="1">
          <mxGeometry x="120" y="60" width="120" height="60" as="geometry" />
        </mxCell>
        <mxCell id="5alTJenOlYLxHf5rfWvM-5" value="" style="edgeStyle=orthogonalEdgeStyle;rounded=0;orthogonalLoop=1;jettySize=auto;html=1;" edge="1" parent="1" source="5alTJenOlYLxHf5rfWvM-2" target="5alTJenOlYLxHf5rfWvM-4">
          <mxGeometry relative="1" as="geometry" />
        </mxCell>
        <mxCell id="5alTJenOlYLxHf5rfWvM-17" value="小于" style="edgeLabel;html=1;align=center;verticalAlign=middle;resizable=0;points=[];" vertex="1" connectable="0" parent="5alTJenOlYLxHf5rfWvM-5">
          <mxGeometry x="-0.0907" relative="1" as="geometry">
            <mxPoint as="offset" />
          </mxGeometry>
        </mxCell>
        <mxCell id="5alTJenOlYLxHf5rfWvM-14" style="edgeStyle=orthogonalEdgeStyle;rounded=0;orthogonalLoop=1;jettySize=auto;html=1;entryX=0.5;entryY=0;entryDx=0;entryDy=0;" edge="1" parent="1" source="5alTJenOlYLxHf5rfWvM-2" target="5alTJenOlYLxHf5rfWvM-11">
          <mxGeometry relative="1" as="geometry" />
        </mxCell>
        <mxCell id="5alTJenOlYLxHf5rfWvM-16" value="不小于" style="edgeLabel;html=1;align=center;verticalAlign=middle;resizable=0;points=[];" vertex="1" connectable="0" parent="5alTJenOlYLxHf5rfWvM-14">
          <mxGeometry x="-0.265" relative="1" as="geometry">
            <mxPoint x="-26" as="offset" />
          </mxGeometry>
        </mxCell>
        <mxCell id="5alTJenOlYLxHf5rfWvM-2" value="老年代剩余可用空间 &amp;lt; 年轻代中现有的所有对象占用空间" style="rhombus;whiteSpace=wrap;html=1;" vertex="1" parent="1">
          <mxGeometry x="-50" y="160" width="460" height="80" as="geometry" />
        </mxCell>
        <mxCell id="5alTJenOlYLxHf5rfWvM-7" value="" style="edgeStyle=orthogonalEdgeStyle;rounded=0;orthogonalLoop=1;jettySize=auto;html=1;" edge="1" parent="1" source="5alTJenOlYLxHf5rfWvM-4" target="5alTJenOlYLxHf5rfWvM-6">
          <mxGeometry relative="1" as="geometry" />
        </mxCell>
        <mxCell id="5alTJenOlYLxHf5rfWvM-20" value="是" style="edgeLabel;html=1;align=center;verticalAlign=middle;resizable=0;points=[];" vertex="1" connectable="0" parent="5alTJenOlYLxHf5rfWvM-7">
          <mxGeometry x="-0.1212" y="-1" relative="1" as="geometry">
            <mxPoint as="offset" />
          </mxGeometry>
        </mxCell>
        <mxCell id="5alTJenOlYLxHf5rfWvM-15" style="edgeStyle=orthogonalEdgeStyle;rounded=0;orthogonalLoop=1;jettySize=auto;html=1;exitX=0;exitY=0.5;exitDx=0;exitDy=0;entryX=0;entryY=0.5;entryDx=0;entryDy=0;" edge="1" parent="1" source="5alTJenOlYLxHf5rfWvM-4" target="5alTJenOlYLxHf5rfWvM-9">
          <mxGeometry relative="1" as="geometry">
            <Array as="points">
              <mxPoint x="-80" y="320" />
              <mxPoint x="-80" y="550" />
            </Array>
          </mxGeometry>
        </mxCell>
        <mxCell id="5alTJenOlYLxHf5rfWvM-21" value="否" style="edgeLabel;html=1;align=center;verticalAlign=middle;resizable=0;points=[];" vertex="1" connectable="0" parent="5alTJenOlYLxHf5rfWvM-15">
          <mxGeometry x="-0.8438" y="-2" relative="1" as="geometry">
            <mxPoint as="offset" />
          </mxGeometry>
        </mxCell>
        <mxCell id="5alTJenOlYLxHf5rfWvM-4" value="是否设置-XX:-HandlePromotionFailure参数" style="rhombus;whiteSpace=wrap;html=1;" vertex="1" parent="1">
          <mxGeometry y="280" width="360" height="80" as="geometry" />
        </mxCell>
        <mxCell id="5alTJenOlYLxHf5rfWvM-10" value="" style="edgeStyle=orthogonalEdgeStyle;rounded=0;orthogonalLoop=1;jettySize=auto;html=1;" edge="1" parent="1" source="5alTJenOlYLxHf5rfWvM-6" target="5alTJenOlYLxHf5rfWvM-9">
          <mxGeometry relative="1" as="geometry" />
        </mxCell>
        <mxCell id="5alTJenOlYLxHf5rfWvM-22" value="小于" style="edgeLabel;html=1;align=center;verticalAlign=middle;resizable=0;points=[];" vertex="1" connectable="0" parent="5alTJenOlYLxHf5rfWvM-10">
          <mxGeometry x="-0.1676" relative="1" as="geometry">
            <mxPoint as="offset" />
          </mxGeometry>
        </mxCell>
        <mxCell id="5alTJenOlYLxHf5rfWvM-13" style="edgeStyle=orthogonalEdgeStyle;rounded=0;orthogonalLoop=1;jettySize=auto;html=1;exitX=1;exitY=0.5;exitDx=0;exitDy=0;entryX=0.5;entryY=1;entryDx=0;entryDy=0;" edge="1" parent="1" source="5alTJenOlYLxHf5rfWvM-6" target="5alTJenOlYLxHf5rfWvM-11">
          <mxGeometry relative="1" as="geometry" />
        </mxCell>
        <mxCell id="5alTJenOlYLxHf5rfWvM-23" value="不小于" style="edgeLabel;html=1;align=center;verticalAlign=middle;resizable=0;points=[];" vertex="1" connectable="0" parent="5alTJenOlYLxHf5rfWvM-13">
          <mxGeometry x="-0.2631" y="1" relative="1" as="geometry">
            <mxPoint x="-26" y="1" as="offset" />
          </mxGeometry>
        </mxCell>
        <mxCell id="5alTJenOlYLxHf5rfWvM-6" value="老年代剩余可用空间 &amp;lt; 历史每一次Minor GC后进入老年代的对象的平均大小" style="rhombus;whiteSpace=wrap;html=1;" vertex="1" parent="1">
          <mxGeometry x="-50" y="400" width="460" height="80" as="geometry" />
        </mxCell>
        <mxCell id="5alTJenOlYLxHf5rfWvM-12" style="edgeStyle=orthogonalEdgeStyle;rounded=0;orthogonalLoop=1;jettySize=auto;html=1;exitX=0.5;exitY=1;exitDx=0;exitDy=0;entryX=1;entryY=0.5;entryDx=0;entryDy=0;" edge="1" parent="1" source="5alTJenOlYLxHf5rfWvM-9" target="5alTJenOlYLxHf5rfWvM-11">
          <mxGeometry relative="1" as="geometry" />
        </mxCell>
        <mxCell id="5alTJenOlYLxHf5rfWvM-9" value="Full GC" style="rounded=0;whiteSpace=wrap;html=1;" vertex="1" parent="1">
          <mxGeometry x="120" y="520" width="120" height="60" as="geometry" />
        </mxCell>
        <mxCell id="5alTJenOlYLxHf5rfWvM-11" value="Minor GC" style="rounded=0;whiteSpace=wrap;html=1;" vertex="1" parent="1">
          <mxGeometry x="440" y="290" width="120" height="60" as="geometry" />
        </mxCell>
      </root>
    </mxGraphModel>
  </diagram>
</mxfile>
